<svg xmlns="http://www.w3.org/2000/svg"
    xmlns:xlink="http://www.w3.org/1999/xlink" version="1.1" x="0px" y="0px" viewBox="0 0 55 55" style="enable-background:new 0 0 55 55;" xml:space="preserve">
    <g>
        <g>
            <g>
                <g>
                    <path d="M19.6806641,35.329834C11.0341797,35.329834,4,28.3024902,4,19.6647949S11.0341797,3.9997559,19.6806641,3.9997559      c8.6459961,0,15.6801758,7.0273438,15.6801758,15.6650391S28.3266602,35.329834,19.6806641,35.329834z M19.6806641,4.9997559      C11.5859375,4.9997559,5,11.5783691,5,19.6647949S11.5859375,34.329834,19.6806641,34.329834      s14.6801758-6.5786133,14.6801758-14.6650391S27.7753906,4.9997559,19.6806641,4.9997559z"/>
                </g>
                <g>
                    <path d="M27.0439453,25.0881348c-0.0283203,0-0.0576172-0.0024414-0.0864258-0.0073242      c-0.2719727-0.0478516-0.4541016-0.3066406-0.4067383-0.5786133c0.2734375-1.5644531,0.4121094-3.1918945,0.4121094-4.8374023      c0-8.0864258-3.2666016-14.6650391-7.2822266-14.6650391c-2.0463867,0-4.0166016,1.7958984-5.4052734,4.9272461      c-0.1118164,0.2519531-0.4047852,0.3686523-0.659668,0.2543945c-0.2524414-0.1118164-0.3662109-0.4072266-0.2543945-0.659668      c1.5791016-3.5610352,3.8237305-5.5219727,6.3193359-5.5219727c4.644043,0,8.2822266,6.8808594,8.2822266,15.6650391      c0,1.703125-0.1435547,3.3886719-0.4267578,5.0092773C27.4936523,24.9172363,27.2822266,25.0881348,27.0439453,25.0881348z"/>
                </g>
                <g>
                    <path d="M19.6806641,35.329834c-4.6445313,0-8.2827148-6.8808594-8.2827148-15.6650391      c0-1.722168,0.1420898-3.3583984,0.434082-5.0014648c0.0483398-0.2714844,0.3061523-0.4580078,0.5795898-0.4047852      c0.2719727,0.0483398,0.453125,0.3076172,0.4047852,0.5795898c-0.2817383,1.5849609-0.418457,3.1635742-0.418457,4.8266602      c0,8.0864258,3.2670898,14.6650391,7.2827148,14.6650391c2.0351563,0,4.0053711-1.7900391,5.4057617-4.9111328      c0.1132813-0.2519531,0.4101563-0.362793,0.6606445-0.2514648c0.2519531,0.112793,0.3647461,0.4086914,0.2514648,0.6606445      C24.4301758,33.3244629,22.1274414,35.329834,19.6806641,35.329834z"/>
                </g>
                <g>
                    <path d="M19.6806641,35.329834c-0.2763672,0-0.5-0.2236328-0.5-0.5V4.4997559c0-0.2763672,0.2236328-0.5,0.5-0.5      s0.5,0.2236328,0.5,0.5V34.829834C20.1806641,35.1062012,19.9570313,35.329834,19.6806641,35.329834z"/>
                </g>
                <g>
                    <path d="M34.8608398,20.1647949H4.5c-0.2763672,0-0.5-0.2236328-0.5-0.5s0.2236328-0.5,0.5-0.5h30.3608398      c0.2763672,0,0.5,0.2236328,0.5,0.5S35.137207,20.1647949,34.8608398,20.1647949z"/>
                </g>
                <g>
                    <g>
                        <g>
                            <path d="M10.3466797,12.0993652c-0.0424805,0-0.0859375-0.0053711-0.1289063-0.0166016        C9.3876953,11.8615723,8.5371094,11.6032715,7.375,11.2180176c-0.262207-0.0869141-0.4042969-0.3696289-0.3173828-0.6318359        c0.0864258-0.262207,0.3706055-0.4023438,0.6318359-0.3173828c1.1425781,0.378418,1.9755859,0.6318359,2.7851563,0.847168        c0.2670898,0.0712891,0.4257813,0.3452148,0.3549805,0.6118164        C10.7700195,11.9519043,10.5673828,12.0993652,10.3466797,12.0993652z"/>
                        </g>
                        <g>
                            <path d="M19.7602539,13.385498c-1.4321289,0-2.8613281-0.0952148-4.3129883-0.2822266        c-0.2739258-0.0356445-0.4672852-0.2861328-0.4321289-0.5600586c0.0356445-0.2734375,0.2885742-0.4589844,0.5600586-0.4321289        c5.2485352,0.6791992,10.2119141,0.109375,16.0966797-1.8422852c0.2612305-0.0854492,0.5444336,0.0551758,0.6318359,0.3173828        c0.0869141,0.262207-0.0551758,0.5449219-0.3173828,0.6318359        C27.5727539,12.6813965,23.6582031,13.385498,19.7602539,13.385498z"/>
                        </g>
                    </g>
                    <g>
                        <g>
                            <path d="M7.4321289,29.1252441c-0.2099609,0-0.4052734-0.1328125-0.4746094-0.3427734        c-0.0869141-0.262207,0.0551758-0.5449219,0.3173828-0.6318359c5.9765625-1.9799805,11.2592773-2.5913086,16.6264648-1.925293        c0.2739258,0.0336914,0.46875,0.2836914,0.4345703,0.5576172c-0.0336914,0.2739258-0.2792969,0.4755859-0.5576172,0.4345703        C18.5625,26.5695801,13.418457,27.1682129,7.5893555,29.0998535        C7.5371094,29.1169434,7.484375,29.1252441,7.4321289,29.1252441z"/>
                        </g>
                        <g>
                            <path d="M31.8291016,29.0861816c-0.0522461,0-0.1049805-0.0083008-0.1572266-0.0253906        c-0.9438477-0.3129883-1.8842773-0.5952148-2.7958984-0.8374023c-0.2666016-0.0712891-0.425293-0.3452148-0.3544922-0.6123047        c0.0717773-0.2666016,0.3481445-0.4233398,0.6123047-0.3544922c0.9301758,0.2480469,1.8901367,0.5356445,2.8525391,0.8549805        c0.262207,0.0869141,0.4042969,0.3701172,0.3173828,0.6318359        C32.2338867,28.9533691,32.0385742,29.0861816,31.8291016,29.0861816z"/>
                        </g>
                    </g>
                </g>
            </g>
            <g>
                <path d="M12.9101563,15.3181152c-1.7275391,0-3.1333008-1.4042969-3.1333008-3.1303711     c0-1.7265625,1.4057617-3.1308594,3.1333008-3.1308594s3.1333008,1.4042969,3.1333008,3.1308594     C16.043457,13.9138184,14.6376953,15.3181152,12.9101563,15.3181152z M12.9101563,10.0568848     c-1.1762695,0-2.1333008,0.9560547-2.1333008,2.1308594s0.9570313,2.1303711,2.1333008,2.1303711     s2.1333008-0.9555664,2.1333008-2.1303711S14.0864258,10.0568848,12.9101563,10.0568848z"/>
            </g>
            <g>
                <path d="M26.4384766,30.279541c-1.7275391,0-3.1333008-1.4042969-3.1333008-3.1308594     c0-1.7260742,1.4057617-3.1303711,3.1333008-3.1303711s3.1333008,1.4042969,3.1333008,3.1303711     C29.5717773,28.8752441,28.1660156,30.279541,26.4384766,30.279541z M26.4384766,25.0183105     c-1.1762695,0-2.1333008,0.9555664-2.1333008,2.1303711s0.9570313,2.1308594,2.1333008,2.1308594     s2.1333008-0.9560547,2.1333008-2.1308594S27.6147461,25.0183105,26.4384766,25.0183105z"/>
            </g>
        </g>
        <g>
            <g>
                <g>
                    <g>
                        <path d="M25.456543,51.0002441c-0.5058594,0-0.9897461-0.1621094-1.3500977-0.4614258       c-0.3398438-0.2827148-0.5273438-0.659668-0.5273438-1.0610352V44.220459c0-0.4013672,0.1870117-0.777832,0.5268555-1.0605469       c0.4628906-0.3857422,1.1308594-0.543457,1.7880859-0.4213867l5.5776367,0.8652344       c0.2436523,0.0380859,0.4233398,0.2475586,0.4233398,0.4941406v5.5024414c0,0.246582-0.1796875,0.4560547-0.4233398,0.4941406       l-5.5854492,0.8666992C25.7431641,50.9870605,25.5986328,51.0002441,25.456543,51.0002441z M25.4643555,43.7004395       c-0.2797852,0-0.5424805,0.0820313-0.71875,0.2285156c-0.0761719,0.0629883-0.1665039,0.1650391-0.1665039,0.2915039v5.2573242       c0,0.1269531,0.0908203,0.2285156,0.1665039,0.2919922c0.230957,0.1914063,0.6074219,0.2734375,0.9658203,0.206543       c0.0048828-0.0009766,0.0097656-0.0014648,0.0146484-0.0024414l5.1689453-0.8017578V44.526123l-5.1689453-0.8017578       C25.6386719,43.708252,25.5507813,43.7004395,25.4643555,43.7004395z"/>
                    </g>
                    <g>
                        <g>
                            <path d="M24.0791016,49.220459h-4.5488281c-0.2763672,0-0.5-0.2236328-0.5-0.5s0.2236328-0.5,0.5-0.5h4.5488281        c0.2763672,0,0.5,0.2236328,0.5,0.5S24.3554688,49.220459,24.0791016,49.220459z"/>
                        </g>
                        <g>
                            <path d="M24.0791016,45.4777832h-4.5488281c-0.2763672,0-0.5-0.2236328-0.5-0.5s0.2236328-0.5,0.5-0.5h4.5488281        c0.2763672,0,0.5,0.2236328,0.5,0.5S24.3554688,45.4777832,24.0791016,45.4777832z"/>
                        </g>
                    </g>
                </g>
            </g>
            <g>
                <path d="M44.8139648,47.3493652H31.3950195c-0.2763672,0-0.5-0.2236328-0.5-0.5s0.2236328-0.5,0.5-0.5h13.4189453     C47.6733398,46.3493652,50,44.6940918,50,42.6594238c0-0.956543-0.519043-1.8657227-1.4619141-2.5605469     c-2.565918-1.8911133-4.2241211-5.5664063-4.2241211-9.362793v-1.128418c0-5.2070313-4.2407227-9.4428711-9.453125-9.4428711     c-0.2763672,0-0.5-0.2236328-0.5-0.5s0.2236328-0.5,0.5-0.5c5.7636719,0,10.453125,4.6845703,10.453125,10.4428711v1.128418     c0,2.859375,1.1806641,6.6142578,3.8178711,8.5581055C50.3364258,40.1818848,51,41.3771973,51,42.6594238     C51,45.2453613,48.2250977,47.3493652,44.8139648,47.3493652z"/>
            </g>
        </g>
    </g>
</svg>